<?xml version="1.0" encoding="UTF-8" standalone="no"?><svg xmlns="http://www.w3.org/2000/svg" xmlns:xlink="http://www.w3.org/1999/xlink" contentScriptType="application/ecmascript" contentStyleType="text/css" height="1377px" preserveAspectRatio="none" style="width:911px;height:1377px;background:#FFFFFF;" version="1.1" viewBox="0 0 911 1377" width="911px" zoomAndPan="magnify"><defs><filter height="300%" id="f14l27q557olw9" width="300%" x="-1" y="-1"><feGaussianBlur result="blurOut" stdDeviation="2.0"/><feColorMatrix in="blurOut" result="blurOut2" type="matrix" values="0 0 0 0 0 0 0 0 0 0 0 0 0 0 0 0 0 0 .4 0"/><feOffset dx="4.0" dy="4.0" in="blurOut2" result="blurOut3"/><feBlend in="SourceGraphic" in2="blurOut3" mode="normal"/></filter></defs><g><!--MD5=[7d06d6799d34498384286c0e4898b711]
cluster conecta4.models--><polygon fill="#FFFFFF" filter="url(#f14l27q557olw9)" points="16,6,141,6,148,29.6094,504,29.6094,504,1271,16,1271,16,6" style="stroke:#000000;stroke-width:1.5;"/><line style="stroke:#000000;stroke-width:1.5;" x1="16" x2="148" y1="29.6094" y2="29.6094"/><text fill="#000000" font-family="sans-serif" font-size="14" font-weight="bold" lengthAdjust="spacing" textLength="119" x="20" y="22.5332">conecta4.models</text><!--MD5=[61dc51f4cdef84c1d570c427755f7578]
cluster conecta4.types--><polygon fill="#FFFFFF" filter="url(#f14l27q557olw9)" points="528,1088,640,1088,647,1111.6094,894,1111.6094,894,1243,528,1243,528,1088" style="stroke:#000000;stroke-width:1.5;"/><line style="stroke:#000000;stroke-width:1.5;" x1="528" x2="647" y1="1111.6094" y2="1111.6094"/><text fill="#000000" font-family="sans-serif" font-size="14" font-weight="bold" lengthAdjust="spacing" textLength="106" x="532" y="1104.5332">conecta4.types</text><!--MD5=[f17681e34e4cbcc5785d7535d5f9a3a5]
class conecta4.models.Game--><rect codeLine="2" fill="#FEFECE" filter="url(#f14l27q557olw9)" height="200.1953" id="conecta4.models.Game" style="stroke:#A80036;stroke-width:1.5;" width="157" x="330.5" y="42"/><ellipse cx="387.75" cy="58" fill="#ADD1B2" rx="11" ry="11" style="stroke:#A80036;stroke-width:1.0;"/><path d="M390.5156,53.875 Q390.6719,53.6563 390.8594,53.5469 Q391.0469,53.4375 391.2656,53.4375 Q391.6406,53.4375 391.875,53.6953 Q392.1094,53.9531 392.1094,54.5625 L392.1094,56.0156 Q392.1094,56.625 391.875,56.8906 Q391.6406,57.1563 391.2656,57.1563 Q390.9219,57.1563 390.7188,56.9531 Q390.5156,56.7656 390.4063,56.25 Q390.3594,55.8906 390.1719,55.7031 Q389.8438,55.3281 389.2344,55.1094 Q388.625,54.8906 388,54.8906 Q387.2344,54.8906 386.6016,55.2188 Q385.9688,55.5469 385.4766,56.2969 Q384.9844,57.0469 384.9844,58.0781 L384.9844,59.1719 Q384.9844,60.4063 385.875,61.2266 Q386.7656,62.0469 388.3594,62.0469 Q389.2969,62.0469 389.9531,61.7969 Q390.3438,61.6406 390.7656,61.2031 Q391.0313,60.9375 391.1797,60.8594 Q391.3281,60.7813 391.5313,60.7813 Q391.8594,60.7813 392.1172,61.0391 Q392.375,61.2969 392.375,61.6406 Q392.375,61.9844 392.0313,62.3906 Q391.5313,62.9688 390.7344,63.2969 Q389.6563,63.75 388.3594,63.75 Q386.8438,63.75 385.6406,63.125 Q384.6563,62.625 383.9688,61.5547 Q383.2813,60.4844 383.2813,59.2031 L383.2813,58.0469 Q383.2813,56.7188 383.8984,55.5703 Q384.5156,54.4219 385.6094,53.8047 Q386.7031,53.1875 387.9375,53.1875 Q388.6719,53.1875 389.3203,53.3516 Q389.9688,53.5156 390.5156,53.875 Z " fill="#000000"/><text fill="#000000" font-family="sans-serif" font-size="12" lengthAdjust="spacing" textLength="34" x="408.25" y="62.9102">Game</text><line style="stroke:#A80036;stroke-width:1.5;" x1="331.5" x2="486.5" y1="74" y2="74"/><line style="stroke:#A80036;stroke-width:1.5;" x1="331.5" x2="486.5" y1="82" y2="82"/><ellipse cx="341.5" cy="93" fill="#84BE84" rx="3" ry="3" style="stroke:#038048;stroke-width:1.0;"/><text fill="#000000" font-family="sans-serif" font-size="11" lengthAdjust="spacing" textLength="36" x="350.5" y="97.4189">Game()</text><ellipse cx="341.5" cy="106.8359" fill="#84BE84" rx="3" ry="3" style="stroke:#038048;stroke-width:1.0;"/><text fill="#000000" font-family="sans-serif" font-size="11" lengthAdjust="spacing" textLength="48" x="350.5" y="111.2549">hasGoal()</text><ellipse cx="341.5" cy="120.6719" fill="#84BE84" rx="3" ry="3" style="stroke:#038048;stroke-width:1.0;"/><text fill="#000000" font-family="sans-serif" font-size="11" lengthAdjust="spacing" textLength="92" x="350.5" y="125.0908">putChip(int column)</text><ellipse cx="341.5" cy="134.5078" fill="#84BE84" rx="3" ry="3" style="stroke:#038048;stroke-width:1.0;"/><text fill="#000000" font-family="sans-serif" font-size="11" lengthAdjust="spacing" textLength="115" x="350.5" y="138.9268">getCurrentColor(): Color</text><ellipse cx="341.5" cy="148.3438" fill="#84BE84" rx="3" ry="3" style="stroke:#038048;stroke-width:1.0;"/><text fill="#000000" font-family="sans-serif" font-size="11" lengthAdjust="spacing" textLength="131" x="350.5" y="152.7627">getColor(Coordinate): Color</text><ellipse cx="341.5" cy="162.1797" fill="#84BE84" rx="3" ry="3" style="stroke:#038048;stroke-width:1.0;"/><text fill="#000000" font-family="sans-serif" font-size="11" lengthAdjust="spacing" textLength="102" x="350.5" y="166.5986">getNumColumns(): int</text><ellipse cx="341.5" cy="176.0156" fill="#84BE84" rx="3" ry="3" style="stroke:#038048;stroke-width:1.0;"/><text fill="#000000" font-family="sans-serif" font-size="11" lengthAdjust="spacing" textLength="90" x="350.5" y="180.4346">getNumRows(): int</text><ellipse cx="341.5" cy="189.8516" fill="#84BE84" rx="3" ry="3" style="stroke:#038048;stroke-width:1.0;"/><text fill="#000000" font-family="sans-serif" font-size="11" lengthAdjust="spacing" textLength="97" x="350.5" y="194.2705">getNumPlayers(): int</text><ellipse cx="341.5" cy="203.6875" fill="#84BE84" rx="3" ry="3" style="stroke:#038048;stroke-width:1.0;"/><text fill="#000000" font-family="sans-serif" font-size="11" lengthAdjust="spacing" textLength="33" x="350.5" y="208.1064">reset()</text><ellipse cx="341.5" cy="217.5234" fill="#84BE84" rx="3" ry="3" style="stroke:#038048;stroke-width:1.0;"/><text fill="#000000" font-family="sans-serif" font-size="11" lengthAdjust="spacing" textLength="124" x="350.5" y="221.9424">getPutChipError(int): Error</text><ellipse cx="341.5" cy="231.3594" fill="#84BE84" rx="3" ry="3" style="stroke:#038048;stroke-width:1.0;"/><text fill="#000000" font-family="sans-serif" font-size="11" lengthAdjust="spacing" textLength="29" x="350.5" y="235.7783">next()</text><!--MD5=[a928de1e4c2df39bf919f3737ffb9c97]
class conecta4.models.Board--><rect codeLine="20" fill="#FEFECE" filter="url(#f14l27q557olw9)" height="310.8828" id="conecta4.models.Board" style="stroke:#A80036;stroke-width:1.5;" width="456" x="32" y="725"/><ellipse cx="239.25" cy="741" fill="#ADD1B2" rx="11" ry="11" style="stroke:#A80036;stroke-width:1.0;"/><path d="M242.0156,736.875 Q242.1719,736.6563 242.3594,736.5469 Q242.5469,736.4375 242.7656,736.4375 Q243.1406,736.4375 243.375,736.6953 Q243.6094,736.9531 243.6094,737.5625 L243.6094,739.0156 Q243.6094,739.625 243.375,739.8906 Q243.1406,740.1563 242.7656,740.1563 Q242.4219,740.1563 242.2188,739.9531 Q242.0156,739.7656 241.9063,739.25 Q241.8594,738.8906 241.6719,738.7031 Q241.3438,738.3281 240.7344,738.1094 Q240.125,737.8906 239.5,737.8906 Q238.7344,737.8906 238.1016,738.2188 Q237.4688,738.5469 236.9766,739.2969 Q236.4844,740.0469 236.4844,741.0781 L236.4844,742.1719 Q236.4844,743.4063 237.375,744.2266 Q238.2656,745.0469 239.8594,745.0469 Q240.7969,745.0469 241.4531,744.7969 Q241.8438,744.6406 242.2656,744.2031 Q242.5313,743.9375 242.6797,743.8594 Q242.8281,743.7813 243.0313,743.7813 Q243.3594,743.7813 243.6172,744.0391 Q243.875,744.2969 243.875,744.6406 Q243.875,744.9844 243.5313,745.3906 Q243.0313,745.9688 242.2344,746.2969 Q241.1563,746.75 239.8594,746.75 Q238.3438,746.75 237.1406,746.125 Q236.1563,745.625 235.4688,744.5547 Q234.7813,743.4844 234.7813,742.2031 L234.7813,741.0469 Q234.7813,739.7188 235.3984,738.5703 Q236.0156,737.4219 237.1094,736.8047 Q238.2031,736.1875 239.4375,736.1875 Q240.1719,736.1875 240.8203,736.3516 Q241.4688,736.5156 242.0156,736.875 Z " fill="#000000"/><text fill="#000000" font-family="sans-serif" font-size="12" lengthAdjust="spacing" textLength="33" x="259.75" y="745.9102">Board</text><line style="stroke:#A80036;stroke-width:1.5;" x1="33" x2="487" y1="757" y2="757"/><ellipse cx="43" cy="768" rx="3" ry="3" style="stroke:#038048;stroke-width:1.0;fill:none;"/><text fill="#000000" font-family="sans-serif" font-size="11" lengthAdjust="spacing" text-decoration="underline" textLength="67" x="52" y="772.4189">COLUMNS: int</text><ellipse cx="43" cy="781.8359" rx="3" ry="3" style="stroke:#038048;stroke-width:1.0;fill:none;"/><text fill="#000000" font-family="sans-serif" font-size="11" lengthAdjust="spacing" text-decoration="underline" textLength="49" x="52" y="786.2549">ROWS: int</text><rect fill="none" height="6" style="stroke:#C82930;stroke-width:1.0;" width="6" x="40" y="792.6719"/><text fill="#000000" font-family="sans-serif" font-size="11" lengthAdjust="spacing" textLength="69" x="52" y="800.0908">lastColumn: int</text><line style="stroke:#A80036;stroke-width:1.5;" x1="33" x2="487" y1="806.5078" y2="806.5078"/><ellipse cx="43" cy="817.5078" fill="#84BE84" rx="3" ry="3" style="stroke:#038048;stroke-width:1.0;"/><text fill="#000000" font-family="sans-serif" font-size="11" lengthAdjust="spacing" textLength="37" x="52" y="821.9268">Board()</text><ellipse cx="43" cy="831.3438" fill="#84BE84" rx="3" ry="3" style="stroke:#038048;stroke-width:1.0;"/><text fill="#000000" font-family="sans-serif" font-size="11" lengthAdjust="spacing" textLength="122" x="52" y="835.7627">canAddChip(int): boolean</text><ellipse cx="43" cy="845.1797" fill="#84BE84" rx="3" ry="3" style="stroke:#038048;stroke-width:1.0;"/><text fill="#000000" font-family="sans-serif" font-size="11" lengthAdjust="spacing" textLength="89" x="52" y="849.5986">addChip(Color, int)</text><ellipse cx="43" cy="859.0156" fill="#84BE84" rx="3" ry="3" style="stroke:#038048;stroke-width:1.0;"/><text fill="#000000" font-family="sans-serif" font-size="11" lengthAdjust="spacing" textLength="102" x="52" y="863.4346">getNumColumns(): int</text><ellipse cx="43" cy="872.8516" fill="#84BE84" rx="3" ry="3" style="stroke:#038048;stroke-width:1.0;"/><text fill="#000000" font-family="sans-serif" font-size="11" lengthAdjust="spacing" textLength="90" x="52" y="877.2705">getNumRows(): int</text><ellipse cx="43" cy="886.6875" fill="#84BE84" rx="3" ry="3" style="stroke:#038048;stroke-width:1.0;"/><text fill="#000000" font-family="sans-serif" font-size="11" lengthAdjust="spacing" textLength="131" x="52" y="891.1064">getColor(Coordinate): Color</text><ellipse cx="43" cy="900.5234" fill="#84BE84" rx="3" ry="3" style="stroke:#038048;stroke-width:1.0;"/><text fill="#000000" font-family="sans-serif" font-size="11" lengthAdjust="spacing" textLength="147" x="52" y="904.9424">isInLimits(Coordinate): boolean</text><ellipse cx="43" cy="914.3594" fill="#84BE84" rx="3" ry="3" style="stroke:#038048;stroke-width:1.0;"/><text fill="#000000" font-family="sans-serif" font-size="11" lengthAdjust="spacing" textLength="33" x="52" y="918.7783">reset()</text><ellipse cx="43" cy="928.1953" fill="#84BE84" rx="3" ry="3" style="stroke:#038048;stroke-width:1.0;"/><text fill="#000000" font-family="sans-serif" font-size="11" lengthAdjust="spacing" textLength="87" x="52" y="932.6143">isFull(int): boolean</text><ellipse cx="43" cy="942.0313" fill="#84BE84" rx="3" ry="3" style="stroke:#038048;stroke-width:1.0;"/><text fill="#000000" font-family="sans-serif" font-size="11" lengthAdjust="spacing" textLength="110" x="52" y="946.4502">isInRange(int): boolean</text><ellipse cx="43" cy="955.8672" fill="#84BE84" rx="3" ry="3" style="stroke:#038048;stroke-width:1.0;"/><text fill="#000000" font-family="sans-serif" font-size="11" lengthAdjust="spacing" textLength="89" x="52" y="960.2861">isEmpty(): boolean</text><ellipse cx="43" cy="969.7031" fill="#84BE84" rx="3" ry="3" style="stroke:#038048;stroke-width:1.0;"/><text fill="#000000" font-family="sans-serif" font-size="11" lengthAdjust="spacing" textLength="92" x="52" y="974.1221">hasGoal(): boolean</text><rect fill="#F24D5C" height="6" style="stroke:#C82930;stroke-width:1.0;" width="6" x="40" y="980.5391"/><text fill="#000000" font-family="sans-serif" font-size="11" lengthAdjust="spacing" textLength="275" x="52" y="987.958">getCandidateGroups(Coordinate): List&lt;List&lt;Coordinate&gt;&gt;</text><rect fill="#F24D5C" height="6" style="stroke:#C82930;stroke-width:1.0;" width="6" x="40" y="994.375"/><text fill="#000000" font-family="sans-serif" font-size="11" lengthAdjust="spacing" textLength="430" x="52" y="1001.7939">getCandidateGroupsByDirection(Coordinate, CoordinateDirection): List&lt;List&lt;Coordinate&gt;&gt;</text><rect fill="#F24D5C" height="6" style="stroke:#C82930;stroke-width:1.0;" width="6" x="40" y="1008.2109"/><text fill="#000000" font-family="sans-serif" font-size="11" lengthAdjust="spacing" textLength="354" x="52" y="1015.6299">getFirstCandidateCoordinate(Coordinate, CoordinateDirection): Coordinate</text><rect fill="#F24D5C" height="6" style="stroke:#C82930;stroke-width:1.0;" width="6" x="40" y="1022.0469"/><text fill="#000000" font-family="sans-serif" font-size="11" lengthAdjust="spacing" textLength="396" x="52" y="1029.4658">getCandidateByFirstCoordinate(Coordinate, CoordinateDirection): List&lt;Coordinate&gt;</text><!--MD5=[01f402776e2a98e3f2a2b23a69e6eaeb]
class conecta4.models.Turn--><rect codeLine="60" fill="#FEFECE" filter="url(#f14l27q557olw9)" height="186.3594" id="conecta4.models.Turn" style="stroke:#A80036;stroke-width:1.5;" width="151" x="336.5" y="302"/><ellipse cx="395.25" cy="318" fill="#ADD1B2" rx="11" ry="11" style="stroke:#A80036;stroke-width:1.0;"/><path d="M398.0156,313.875 Q398.1719,313.6563 398.3594,313.5469 Q398.5469,313.4375 398.7656,313.4375 Q399.1406,313.4375 399.375,313.6953 Q399.6094,313.9531 399.6094,314.5625 L399.6094,316.0156 Q399.6094,316.625 399.375,316.8906 Q399.1406,317.1563 398.7656,317.1563 Q398.4219,317.1563 398.2188,316.9531 Q398.0156,316.7656 397.9063,316.25 Q397.8594,315.8906 397.6719,315.7031 Q397.3438,315.3281 396.7344,315.1094 Q396.125,314.8906 395.5,314.8906 Q394.7344,314.8906 394.1016,315.2188 Q393.4688,315.5469 392.9766,316.2969 Q392.4844,317.0469 392.4844,318.0781 L392.4844,319.1719 Q392.4844,320.4063 393.375,321.2266 Q394.2656,322.0469 395.8594,322.0469 Q396.7969,322.0469 397.4531,321.7969 Q397.8438,321.6406 398.2656,321.2031 Q398.5313,320.9375 398.6797,320.8594 Q398.8281,320.7813 399.0313,320.7813 Q399.3594,320.7813 399.6172,321.0391 Q399.875,321.2969 399.875,321.6406 Q399.875,321.9844 399.5313,322.3906 Q399.0313,322.9688 398.2344,323.2969 Q397.1563,323.75 395.8594,323.75 Q394.3438,323.75 393.1406,323.125 Q392.1563,322.625 391.4688,321.5547 Q390.7813,320.4844 390.7813,319.2031 L390.7813,318.0469 Q390.7813,316.7188 391.3984,315.5703 Q392.0156,314.4219 393.1094,313.8047 Q394.2031,313.1875 395.4375,313.1875 Q396.1719,313.1875 396.8203,313.3516 Q397.4688,313.5156 398.0156,313.875 Z " fill="#000000"/><text fill="#000000" font-family="sans-serif" font-size="12" lengthAdjust="spacing" textLength="25" x="415.75" y="322.9102">Turn</text><line style="stroke:#A80036;stroke-width:1.5;" x1="337.5" x2="486.5" y1="334" y2="334"/><ellipse cx="347.5" cy="345" rx="3" ry="3" style="stroke:#038048;stroke-width:1.0;fill:none;"/><text fill="#000000" font-family="sans-serif" font-size="11" lengthAdjust="spacing" text-decoration="underline" textLength="113" x="356.5" y="349.4189">PLAYERS_NUMBER: int</text><rect fill="none" height="6" style="stroke:#C82930;stroke-width:1.0;" width="6" x="344.5" y="355.8359"/><text fill="#000000" font-family="sans-serif" font-size="11" lengthAdjust="spacing" textLength="108" x="356.5" y="363.2549">currentPlayerIndex: int</text><line style="stroke:#A80036;stroke-width:1.5;" x1="337.5" x2="486.5" y1="369.6719" y2="369.6719"/><ellipse cx="347.5" cy="380.6719" fill="#84BE84" rx="3" ry="3" style="stroke:#038048;stroke-width:1.0;"/><text fill="#000000" font-family="sans-serif" font-size="11" lengthAdjust="spacing" textLength="59" x="356.5" y="385.0908">Turn(Board)</text><ellipse cx="347.5" cy="394.5078" fill="#84BE84" rx="3" ry="3" style="stroke:#038048;stroke-width:1.0;"/><text fill="#000000" font-family="sans-serif" font-size="11" lengthAdjust="spacing" textLength="55" x="356.5" y="398.9268">putChip(int)</text><ellipse cx="347.5" cy="408.3438" fill="#84BE84" rx="3" ry="3" style="stroke:#038048;stroke-width:1.0;"/><text fill="#000000" font-family="sans-serif" font-size="11" lengthAdjust="spacing" textLength="125" x="356.5" y="412.7627">getCurrentPlayer(): Player</text><ellipse cx="347.5" cy="422.1797" fill="#84BE84" rx="3" ry="3" style="stroke:#038048;stroke-width:1.0;"/><text fill="#000000" font-family="sans-serif" font-size="11" lengthAdjust="spacing" textLength="113" x="356.5" y="426.5986">getPlayersNumber(): int</text><ellipse cx="347.5" cy="436.0156" fill="#84BE84" rx="3" ry="3" style="stroke:#038048;stroke-width:1.0;"/><text fill="#000000" font-family="sans-serif" font-size="11" lengthAdjust="spacing" textLength="115" x="356.5" y="440.4346">getCurrentColor(): Color</text><ellipse cx="347.5" cy="449.8516" fill="#84BE84" rx="3" ry="3" style="stroke:#038048;stroke-width:1.0;"/><text fill="#000000" font-family="sans-serif" font-size="11" lengthAdjust="spacing" textLength="33" x="356.5" y="454.2705">reset()</text><polygon fill="#4177AF" points="347.5,459.6875,343.5,465.6875,351.5,465.6875" style="stroke:#1963A0;stroke-width:1.0;"/><text fill="#000000" font-family="sans-serif" font-size="11" lengthAdjust="spacing" textLength="124" x="356.5" y="468.1064">getPutChipError(int): Error</text><ellipse cx="347.5" cy="477.5234" fill="#84BE84" rx="3" ry="3" style="stroke:#038048;stroke-width:1.0;"/><text fill="#000000" font-family="sans-serif" font-size="11" lengthAdjust="spacing" textLength="29" x="356.5" y="481.9424">next()</text><!--MD5=[042dda153b057b4be2112d95af086283]
class conecta4.models.Column--><rect codeLine="46" fill="#FEFECE" filter="url(#f14l27q557olw9)" height="158.6875" id="conecta4.models.Column" style="stroke:#A80036;stroke-width:1.5;" width="159" x="180.5" y="1096"/><ellipse cx="233.75" cy="1112" fill="#ADD1B2" rx="11" ry="11" style="stroke:#A80036;stroke-width:1.0;"/><path d="M236.5156,1107.875 Q236.6719,1107.6563 236.8594,1107.5469 Q237.0469,1107.4375 237.2656,1107.4375 Q237.6406,1107.4375 237.875,1107.6953 Q238.1094,1107.9531 238.1094,1108.5625 L238.1094,1110.0156 Q238.1094,1110.625 237.875,1110.8906 Q237.6406,1111.1563 237.2656,1111.1563 Q236.9219,1111.1563 236.7188,1110.9531 Q236.5156,1110.7656 236.4063,1110.25 Q236.3594,1109.8906 236.1719,1109.7031 Q235.8438,1109.3281 235.2344,1109.1094 Q234.625,1108.8906 234,1108.8906 Q233.2344,1108.8906 232.6016,1109.2188 Q231.9688,1109.5469 231.4766,1110.2969 Q230.9844,1111.0469 230.9844,1112.0781 L230.9844,1113.1719 Q230.9844,1114.4063 231.875,1115.2266 Q232.7656,1116.0469 234.3594,1116.0469 Q235.2969,1116.0469 235.9531,1115.7969 Q236.3438,1115.6406 236.7656,1115.2031 Q237.0313,1114.9375 237.1797,1114.8594 Q237.3281,1114.7813 237.5313,1114.7813 Q237.8594,1114.7813 238.1172,1115.0391 Q238.375,1115.2969 238.375,1115.6406 Q238.375,1115.9844 238.0313,1116.3906 Q237.5313,1116.9688 236.7344,1117.2969 Q235.6563,1117.75 234.3594,1117.75 Q232.8438,1117.75 231.6406,1117.125 Q230.6563,1116.625 229.9688,1115.5547 Q229.2813,1114.4844 229.2813,1113.2031 L229.2813,1112.0469 Q229.2813,1110.7188 229.8984,1109.5703 Q230.5156,1108.4219 231.6094,1107.8047 Q232.7031,1107.1875 233.9375,1107.1875 Q234.6719,1107.1875 235.3203,1107.3516 Q235.9688,1107.5156 236.5156,1107.875 Z " fill="#000000"/><text fill="#000000" font-family="sans-serif" font-size="12" lengthAdjust="spacing" textLength="44" x="254.25" y="1116.9102">Column</text><line style="stroke:#A80036;stroke-width:1.5;" x1="181.5" x2="338.5" y1="1128" y2="1128"/><line style="stroke:#A80036;stroke-width:1.5;" x1="181.5" x2="338.5" y1="1136" y2="1136"/><ellipse cx="191.5" cy="1147" fill="#84BE84" rx="3" ry="3" style="stroke:#038048;stroke-width:1.0;"/><text fill="#000000" font-family="sans-serif" font-size="11" lengthAdjust="spacing" textLength="54" x="200.5" y="1151.4189">Column(int)</text><ellipse cx="191.5" cy="1160.8359" fill="#84BE84" rx="3" ry="3" style="stroke:#038048;stroke-width:1.0;"/><text fill="#000000" font-family="sans-serif" font-size="11" lengthAdjust="spacing" textLength="76" x="200.5" y="1165.2549">isFull(): boolean</text><ellipse cx="191.5" cy="1174.6719" fill="#84BE84" rx="3" ry="3" style="stroke:#038048;stroke-width:1.0;"/><text fill="#000000" font-family="sans-serif" font-size="11" lengthAdjust="spacing" textLength="89" x="200.5" y="1179.0908">isEmpty(): boolean</text><ellipse cx="191.5" cy="1188.5078" fill="#84BE84" rx="3" ry="3" style="stroke:#038048;stroke-width:1.0;"/><text fill="#000000" font-family="sans-serif" font-size="11" lengthAdjust="spacing" textLength="72" x="200.5" y="1192.9268">addChip(Color)</text><ellipse cx="191.5" cy="1202.3438" fill="#84BE84" rx="3" ry="3" style="stroke:#038048;stroke-width:1.0;"/><text fill="#000000" font-family="sans-serif" font-size="11" lengthAdjust="spacing" textLength="90" x="200.5" y="1206.7627">getColor(int): Color</text><ellipse cx="191.5" cy="1216.1797" fill="#84BE84" rx="3" ry="3" style="stroke:#038048;stroke-width:1.0;"/><text fill="#000000" font-family="sans-serif" font-size="11" lengthAdjust="spacing" textLength="133" x="200.5" y="1220.5986">getLastIndexWithColor(): int</text><ellipse cx="191.5" cy="1230.0156" fill="#84BE84" rx="3" ry="3" style="stroke:#038048;stroke-width:1.0;"/><text fill="#000000" font-family="sans-serif" font-size="11" lengthAdjust="spacing" textLength="97" x="200.5" y="1234.4346">getLasColor(): Color</text><ellipse cx="191.5" cy="1243.8516" fill="#84BE84" rx="3" ry="3" style="stroke:#038048;stroke-width:1.0;"/><text fill="#000000" font-family="sans-serif" font-size="11" lengthAdjust="spacing" textLength="33" x="200.5" y="1248.2705">reset()</text><!--MD5=[38816ae49e61d5316e972e2c635e21c3]
class conecta4.models.Player--><rect codeLine="79" fill="#FEFECE" filter="url(#f14l27q557olw9)" height="117.1797" id="conecta4.models.Player" style="stroke:#A80036;stroke-width:1.5;" width="150" x="338" y="548"/><ellipse cx="391.75" cy="564" fill="#ADD1B2" rx="11" ry="11" style="stroke:#A80036;stroke-width:1.0;"/><path d="M394.5156,559.875 Q394.6719,559.6563 394.8594,559.5469 Q395.0469,559.4375 395.2656,559.4375 Q395.6406,559.4375 395.875,559.6953 Q396.1094,559.9531 396.1094,560.5625 L396.1094,562.0156 Q396.1094,562.625 395.875,562.8906 Q395.6406,563.1563 395.2656,563.1563 Q394.9219,563.1563 394.7188,562.9531 Q394.5156,562.7656 394.4063,562.25 Q394.3594,561.8906 394.1719,561.7031 Q393.8438,561.3281 393.2344,561.1094 Q392.625,560.8906 392,560.8906 Q391.2344,560.8906 390.6016,561.2188 Q389.9688,561.5469 389.4766,562.2969 Q388.9844,563.0469 388.9844,564.0781 L388.9844,565.1719 Q388.9844,566.4063 389.875,567.2266 Q390.7656,568.0469 392.3594,568.0469 Q393.2969,568.0469 393.9531,567.7969 Q394.3438,567.6406 394.7656,567.2031 Q395.0313,566.9375 395.1797,566.8594 Q395.3281,566.7813 395.5313,566.7813 Q395.8594,566.7813 396.1172,567.0391 Q396.375,567.2969 396.375,567.6406 Q396.375,567.9844 396.0313,568.3906 Q395.5313,568.9688 394.7344,569.2969 Q393.6563,569.75 392.3594,569.75 Q390.8438,569.75 389.6406,569.125 Q388.6563,568.625 387.9688,567.5547 Q387.2813,566.4844 387.2813,565.2031 L387.2813,564.0469 Q387.2813,562.7188 387.8984,561.5703 Q388.5156,560.4219 389.6094,559.8047 Q390.7031,559.1875 391.9375,559.1875 Q392.6719,559.1875 393.3203,559.3516 Q393.9688,559.5156 394.5156,559.875 Z " fill="#000000"/><text fill="#000000" font-family="sans-serif" font-size="12" lengthAdjust="spacing" textLength="34" x="412.25" y="568.9102">Player</text><line style="stroke:#A80036;stroke-width:1.5;" x1="339" x2="487" y1="580" y2="580"/><ellipse cx="349" cy="591" rx="3" ry="3" style="stroke:#038048;stroke-width:1.0;fill:none;"/><text fill="#000000" font-family="sans-serif" font-size="11" lengthAdjust="spacing" text-decoration="underline" textLength="119" x="358" y="595.4189">PIECES_BY_PLAYER: int</text><line style="stroke:#A80036;stroke-width:1.5;" x1="339" x2="487" y1="601.8359" y2="601.8359"/><ellipse cx="349" cy="612.8359" fill="#84BE84" rx="3" ry="3" style="stroke:#038048;stroke-width:1.0;"/><text fill="#000000" font-family="sans-serif" font-size="11" lengthAdjust="spacing" textLength="99" x="358" y="617.2549">putChip(int): boolean</text><ellipse cx="349" cy="626.6719" fill="#84BE84" rx="3" ry="3" style="stroke:#038048;stroke-width:1.0;"/><text fill="#000000" font-family="sans-serif" font-size="11" lengthAdjust="spacing" textLength="79" x="358" y="631.0908">getColor(): Color</text><ellipse cx="349" cy="640.5078" fill="#84BE84" rx="3" ry="3" style="stroke:#038048;stroke-width:1.0;"/><text fill="#000000" font-family="sans-serif" font-size="11" lengthAdjust="spacing" textLength="33" x="358" y="644.9268">reset()</text><ellipse cx="349" cy="654.3438" fill="#84BE84" rx="3" ry="3" style="stroke:#038048;stroke-width:1.0;"/><text fill="#000000" font-family="sans-serif" font-size="11" lengthAdjust="spacing" textLength="124" x="358" y="658.7627">getPutChipError(int): Error</text><!--MD5=[c89729cf067c7a3ae1bab308a3518335]
class conecta4.models.State--><rect codeLine="92" fill="#FEFECE" filter="url(#f14l27q557olw9)" height="103.3438" id="conecta4.models.State" style="stroke:#A80036;stroke-width:1.5;" width="161" x="66.5" y="90.5"/><ellipse cx="128.75" cy="106.5" fill="#ADD1B2" rx="11" ry="11" style="stroke:#A80036;stroke-width:1.0;"/><path d="M131.5156,102.375 Q131.6719,102.1563 131.8594,102.0469 Q132.0469,101.9375 132.2656,101.9375 Q132.6406,101.9375 132.875,102.1953 Q133.1094,102.4531 133.1094,103.0625 L133.1094,104.5156 Q133.1094,105.125 132.875,105.3906 Q132.6406,105.6563 132.2656,105.6563 Q131.9219,105.6563 131.7188,105.4531 Q131.5156,105.2656 131.4063,104.75 Q131.3594,104.3906 131.1719,104.2031 Q130.8438,103.8281 130.2344,103.6094 Q129.625,103.3906 129,103.3906 Q128.2344,103.3906 127.6016,103.7188 Q126.9688,104.0469 126.4766,104.7969 Q125.9844,105.5469 125.9844,106.5781 L125.9844,107.6719 Q125.9844,108.9063 126.875,109.7266 Q127.7656,110.5469 129.3594,110.5469 Q130.2969,110.5469 130.9531,110.2969 Q131.3438,110.1406 131.7656,109.7031 Q132.0313,109.4375 132.1797,109.3594 Q132.3281,109.2813 132.5313,109.2813 Q132.8594,109.2813 133.1172,109.5391 Q133.375,109.7969 133.375,110.1406 Q133.375,110.4844 133.0313,110.8906 Q132.5313,111.4688 131.7344,111.7969 Q130.6563,112.25 129.3594,112.25 Q127.8438,112.25 126.6406,111.625 Q125.6563,111.125 124.9688,110.0547 Q124.2813,108.9844 124.2813,107.7031 L124.2813,106.5469 Q124.2813,105.2188 124.8984,104.0703 Q125.5156,102.9219 126.6094,102.3047 Q127.7031,101.6875 128.9375,101.6875 Q129.6719,101.6875 130.3203,101.8516 Q130.9688,102.0156 131.5156,102.375 Z " fill="#000000"/><text fill="#000000" font-family="sans-serif" font-size="12" lengthAdjust="spacing" textLength="28" x="149.25" y="111.4102">State</text><line style="stroke:#A80036;stroke-width:1.5;" x1="67.5" x2="226.5" y1="122.5" y2="122.5"/><line style="stroke:#A80036;stroke-width:1.5;" x1="67.5" x2="226.5" y1="130.5" y2="130.5"/><ellipse cx="77.5" cy="141.5" fill="#84BE84" rx="3" ry="3" style="stroke:#038048;stroke-width:1.0;"/><text fill="#000000" font-family="sans-serif" font-size="11" lengthAdjust="spacing" textLength="33" x="86.5" y="145.9189">State()</text><ellipse cx="77.5" cy="155.3359" fill="#84BE84" rx="3" ry="3" style="stroke:#038048;stroke-width:1.0;"/><text fill="#000000" font-family="sans-serif" font-size="11" lengthAdjust="spacing" textLength="33" x="86.5" y="159.7549">reset()</text><ellipse cx="77.5" cy="169.1719" fill="#84BE84" rx="3" ry="3" style="stroke:#038048;stroke-width:1.0;"/><text fill="#000000" font-family="sans-serif" font-size="11" lengthAdjust="spacing" textLength="29" x="86.5" y="173.5908">next()</text><ellipse cx="77.5" cy="183.0078" fill="#84BE84" rx="3" ry="3" style="stroke:#038048;stroke-width:1.0;"/><text fill="#000000" font-family="sans-serif" font-size="11" lengthAdjust="spacing" textLength="135" x="86.5" y="187.4268">getValueState(): StateValue</text><!--MD5=[d1a0b6ecf937e569ef57776b1c503657]
class conecta4.models.StateValue--><rect codeLine="100" fill="#FEFECE" filter="url(#f14l27q557olw9)" height="103.3438" id="conecta4.models.StateValue" style="stroke:#A80036;stroke-width:1.5;" width="91" x="101.5" y="343.5"/><ellipse cx="116.5" cy="359.5" fill="#EB937F" rx="11" ry="11" style="stroke:#A80036;stroke-width:1.0;"/><path d="M115.3594,360.2969 L115.3594,362.7969 L119.6875,362.7969 L119.6875,361.875 Q119.6875,361.2656 119.9297,361 Q120.1719,360.7344 120.5469,360.7344 Q120.9219,360.7344 121.1563,361 Q121.3906,361.2656 121.3906,361.875 L121.3906,364.5 L113.3906,364.5 Q112.7656,364.5 112.5078,364.2656 Q112.25,364.0313 112.25,363.6406 Q112.25,363.2656 112.5156,363.0313 Q112.7813,362.7969 113.3906,362.7969 L113.6563,362.7969 L113.6563,356.1406 L113.3906,356.1406 Q112.7656,356.1406 112.5078,355.9063 Q112.25,355.6719 112.25,355.2813 Q112.25,354.9063 112.5078,354.6719 Q112.7656,354.4375 113.3906,354.4375 L121.0156,354.4375 L121.0156,357.0313 Q121.0156,357.6406 120.7891,357.8984 Q120.5625,358.1563 120.1719,358.1563 Q119.7969,358.1563 119.5625,357.8984 Q119.3281,357.6406 119.3281,357.0313 L119.3281,356.1406 L115.3594,356.1406 L115.3594,358.5938 L116.8438,358.5938 Q116.8438,357.9375 116.9688,357.75 Q117.2344,357.3438 117.7031,357.3438 Q118.0781,357.3438 118.3125,357.6016 Q118.5469,357.8594 118.5469,358.4688 L118.5469,360.4375 Q118.5469,360.9844 118.4219,361.1719 Q118.1563,361.5625 117.7031,361.5625 Q117.2344,361.5625 116.9688,361.1563 Q116.8438,360.9688 116.8438,360.2969 L115.3594,360.2969 Z " fill="#000000"/><text fill="#000000" font-family="sans-serif" font-size="12" lengthAdjust="spacing" textLength="59" x="130.5" y="364.4102">StateValue</text><line style="stroke:#A80036;stroke-width:1.5;" x1="102.5" x2="191.5" y1="375.5" y2="375.5"/><ellipse cx="112.5" cy="386.5" rx="3" ry="3" style="stroke:#038048;stroke-width:1.0;fill:none;"/><text fill="#000000" font-family="sans-serif" font-size="11" lengthAdjust="spacing" textLength="33" x="121.5" y="390.9189">INITIAL</text><ellipse cx="112.5" cy="400.3359" rx="3" ry="3" style="stroke:#038048;stroke-width:1.0;fill:none;"/><text fill="#000000" font-family="sans-serif" font-size="11" lengthAdjust="spacing" textLength="45" x="121.5" y="404.7549">IN_GAME</text><ellipse cx="112.5" cy="414.1719" rx="3" ry="3" style="stroke:#038048;stroke-width:1.0;fill:none;"/><text fill="#000000" font-family="sans-serif" font-size="11" lengthAdjust="spacing" textLength="41" x="121.5" y="418.5908">RESUME</text><ellipse cx="112.5" cy="428.0078" rx="3" ry="3" style="stroke:#038048;stroke-width:1.0;fill:none;"/><text fill="#000000" font-family="sans-serif" font-size="11" lengthAdjust="spacing" textLength="21" x="121.5" y="432.4268">EXIT</text><line style="stroke:#A80036;stroke-width:1.5;" x1="102.5" x2="191.5" y1="438.8438" y2="438.8438"/><!--MD5=[d6af5e25a8c75c84f0f7d504ceef23a6]
class conecta4.types.Error--><rect fill="#FEFECE" filter="url(#f14l27q557olw9)" height="48" id="conecta4.types.Error" style="stroke:#A80036;stroke-width:1.5;" width="59" x="818.5" y="1151.5"/><ellipse cx="833.5" cy="1167.5" fill="#ADD1B2" rx="11" ry="11" style="stroke:#A80036;stroke-width:1.0;"/><path d="M836.2656,1163.375 Q836.4219,1163.1563 836.6094,1163.0469 Q836.7969,1162.9375 837.0156,1162.9375 Q837.3906,1162.9375 837.625,1163.1953 Q837.8594,1163.4531 837.8594,1164.0625 L837.8594,1165.5156 Q837.8594,1166.125 837.625,1166.3906 Q837.3906,1166.6563 837.0156,1166.6563 Q836.6719,1166.6563 836.4688,1166.4531 Q836.2656,1166.2656 836.1563,1165.75 Q836.1094,1165.3906 835.9219,1165.2031 Q835.5938,1164.8281 834.9844,1164.6094 Q834.375,1164.3906 833.75,1164.3906 Q832.9844,1164.3906 832.3516,1164.7188 Q831.7188,1165.0469 831.2266,1165.7969 Q830.7344,1166.5469 830.7344,1167.5781 L830.7344,1168.6719 Q830.7344,1169.9063 831.625,1170.7266 Q832.5156,1171.5469 834.1094,1171.5469 Q835.0469,1171.5469 835.7031,1171.2969 Q836.0938,1171.1406 836.5156,1170.7031 Q836.7813,1170.4375 836.9297,1170.3594 Q837.0781,1170.2813 837.2813,1170.2813 Q837.6094,1170.2813 837.8672,1170.5391 Q838.125,1170.7969 838.125,1171.1406 Q838.125,1171.4844 837.7813,1171.8906 Q837.2813,1172.4688 836.4844,1172.7969 Q835.4063,1173.25 834.1094,1173.25 Q832.5938,1173.25 831.3906,1172.625 Q830.4063,1172.125 829.7188,1171.0547 Q829.0313,1169.9844 829.0313,1168.7031 L829.0313,1167.5469 Q829.0313,1166.2188 829.6484,1165.0703 Q830.2656,1163.9219 831.3594,1163.3047 Q832.4531,1162.6875 833.6875,1162.6875 Q834.4219,1162.6875 835.0703,1162.8516 Q835.7188,1163.0156 836.2656,1163.375 Z " fill="#000000"/><text fill="#000000" font-family="sans-serif" font-size="12" lengthAdjust="spacing" textLength="27" x="847.5" y="1172.4102">Error</text><line style="stroke:#A80036;stroke-width:1.5;" x1="819.5" x2="876.5" y1="1183.5" y2="1183.5"/><line style="stroke:#A80036;stroke-width:1.5;" x1="819.5" x2="876.5" y1="1191.5" y2="1191.5"/><!--MD5=[d883c1e7a1c7d6bdde3cccabd3c643e5]
class conecta4.types.Color--><rect codeLine="107" fill="#FEFECE" filter="url(#f14l27q557olw9)" height="89.5078" id="conecta4.types.Color" style="stroke:#A80036;stroke-width:1.5;" width="62" x="721" y="1130.5"/><ellipse cx="736" cy="1146.5" fill="#EB937F" rx="11" ry="11" style="stroke:#A80036;stroke-width:1.0;"/><path d="M734.8594,1147.2969 L734.8594,1149.7969 L739.1875,1149.7969 L739.1875,1148.875 Q739.1875,1148.2656 739.4297,1148 Q739.6719,1147.7344 740.0469,1147.7344 Q740.4219,1147.7344 740.6563,1148 Q740.8906,1148.2656 740.8906,1148.875 L740.8906,1151.5 L732.8906,1151.5 Q732.2656,1151.5 732.0078,1151.2656 Q731.75,1151.0313 731.75,1150.6406 Q731.75,1150.2656 732.0156,1150.0313 Q732.2813,1149.7969 732.8906,1149.7969 L733.1563,1149.7969 L733.1563,1143.1406 L732.8906,1143.1406 Q732.2656,1143.1406 732.0078,1142.9063 Q731.75,1142.6719 731.75,1142.2813 Q731.75,1141.9063 732.0078,1141.6719 Q732.2656,1141.4375 732.8906,1141.4375 L740.5156,1141.4375 L740.5156,1144.0313 Q740.5156,1144.6406 740.2891,1144.8984 Q740.0625,1145.1563 739.6719,1145.1563 Q739.2969,1145.1563 739.0625,1144.8984 Q738.8281,1144.6406 738.8281,1144.0313 L738.8281,1143.1406 L734.8594,1143.1406 L734.8594,1145.5938 L736.3438,1145.5938 Q736.3438,1144.9375 736.4688,1144.75 Q736.7344,1144.3438 737.2031,1144.3438 Q737.5781,1144.3438 737.8125,1144.6016 Q738.0469,1144.8594 738.0469,1145.4688 L738.0469,1147.4375 Q738.0469,1147.9844 737.9219,1148.1719 Q737.6563,1148.5625 737.2031,1148.5625 Q736.7344,1148.5625 736.4688,1148.1563 Q736.3438,1147.9688 736.3438,1147.2969 L734.8594,1147.2969 Z " fill="#000000"/><text fill="#000000" font-family="sans-serif" font-size="12" lengthAdjust="spacing" textLength="30" x="750" y="1151.4102">Color</text><line style="stroke:#A80036;stroke-width:1.5;" x1="722" x2="782" y1="1162.5" y2="1162.5"/><ellipse cx="732" cy="1173.5" rx="3" ry="3" style="stroke:#038048;stroke-width:1.0;fill:none;"/><text fill="#000000" font-family="sans-serif" font-size="11" lengthAdjust="spacing" textLength="26" x="741" y="1177.9189">BLUE</text><ellipse cx="732" cy="1187.3359" rx="3" ry="3" style="stroke:#038048;stroke-width:1.0;fill:none;"/><text fill="#000000" font-family="sans-serif" font-size="11" lengthAdjust="spacing" textLength="20" x="741" y="1191.7549">RED</text><ellipse cx="732" cy="1201.1719" rx="3" ry="3" style="stroke:#038048;stroke-width:1.0;fill:none;"/><text fill="#000000" font-family="sans-serif" font-size="11" lengthAdjust="spacing" textLength="26" x="741" y="1205.5908">NULL</text><line style="stroke:#A80036;stroke-width:1.5;" x1="722" x2="782" y1="1212.0078" y2="1212.0078"/><!--MD5=[b2835635e16c40ccd0e834e0ec92e010]
class conecta4.types.CoordinateDirection--><rect codeLine="113" fill="#FEFECE" filter="url(#f14l27q557olw9)" height="103.3438" id="conecta4.types.CoordinateDirection" style="stroke:#A80036;stroke-width:1.5;" width="142" x="544" y="1124"/><ellipse cx="559" cy="1140" fill="#EB937F" rx="11" ry="11" style="stroke:#A80036;stroke-width:1.0;"/><path d="M557.8594,1140.7969 L557.8594,1143.2969 L562.1875,1143.2969 L562.1875,1142.375 Q562.1875,1141.7656 562.4297,1141.5 Q562.6719,1141.2344 563.0469,1141.2344 Q563.4219,1141.2344 563.6563,1141.5 Q563.8906,1141.7656 563.8906,1142.375 L563.8906,1145 L555.8906,1145 Q555.2656,1145 555.0078,1144.7656 Q554.75,1144.5313 554.75,1144.1406 Q554.75,1143.7656 555.0156,1143.5313 Q555.2813,1143.2969 555.8906,1143.2969 L556.1563,1143.2969 L556.1563,1136.6406 L555.8906,1136.6406 Q555.2656,1136.6406 555.0078,1136.4063 Q554.75,1136.1719 554.75,1135.7813 Q554.75,1135.4063 555.0078,1135.1719 Q555.2656,1134.9375 555.8906,1134.9375 L563.5156,1134.9375 L563.5156,1137.5313 Q563.5156,1138.1406 563.2891,1138.3984 Q563.0625,1138.6563 562.6719,1138.6563 Q562.2969,1138.6563 562.0625,1138.3984 Q561.8281,1138.1406 561.8281,1137.5313 L561.8281,1136.6406 L557.8594,1136.6406 L557.8594,1139.0938 L559.3438,1139.0938 Q559.3438,1138.4375 559.4688,1138.25 Q559.7344,1137.8438 560.2031,1137.8438 Q560.5781,1137.8438 560.8125,1138.1016 Q561.0469,1138.3594 561.0469,1138.9688 L561.0469,1140.9375 Q561.0469,1141.4844 560.9219,1141.6719 Q560.6563,1142.0625 560.2031,1142.0625 Q559.7344,1142.0625 559.4688,1141.6563 Q559.3438,1141.4688 559.3438,1140.7969 L557.8594,1140.7969 Z " fill="#000000"/><text fill="#000000" font-family="sans-serif" font-size="12" lengthAdjust="spacing" textLength="110" x="573" y="1144.9102">CoordinateDirection</text><line style="stroke:#A80036;stroke-width:1.5;" x1="545" x2="685" y1="1156" y2="1156"/><ellipse cx="555" cy="1167" rx="3" ry="3" style="stroke:#038048;stroke-width:1.0;fill:none;"/><text fill="#000000" font-family="sans-serif" font-size="11" lengthAdjust="spacing" textLength="25" x="564" y="1171.4189">ROW</text><ellipse cx="555" cy="1180.8359" rx="3" ry="3" style="stroke:#038048;stroke-width:1.0;fill:none;"/><text fill="#000000" font-family="sans-serif" font-size="11" lengthAdjust="spacing" textLength="43" x="564" y="1185.2549">COLUMN</text><ellipse cx="555" cy="1194.6719" rx="3" ry="3" style="stroke:#038048;stroke-width:1.0;fill:none;"/><text fill="#000000" font-family="sans-serif" font-size="11" lengthAdjust="spacing" textLength="85" x="564" y="1199.0908">MAIN_DIAGONAL</text><ellipse cx="555" cy="1208.5078" rx="3" ry="3" style="stroke:#038048;stroke-width:1.0;fill:none;"/><text fill="#000000" font-family="sans-serif" font-size="11" lengthAdjust="spacing" textLength="107" x="564" y="1212.9268">REVERSE_DIAGONAL</text><line style="stroke:#A80036;stroke-width:1.5;" x1="545" x2="685" y1="1219.3438" y2="1219.3438"/><!--MD5=[18eee71c88ab61f27581b8cbdd3ef5ee]
class Color--><rect fill="#FEFECE" filter="url(#f14l27q557olw9)" height="48" id="Color" style="stroke:#A80036;stroke-width:1.5;" width="62" x="229" y="1315"/><ellipse cx="244" cy="1331" fill="#ADD1B2" rx="11" ry="11" style="stroke:#A80036;stroke-width:1.0;"/><path d="M246.7656,1326.875 Q246.9219,1326.6563 247.1094,1326.5469 Q247.2969,1326.4375 247.5156,1326.4375 Q247.8906,1326.4375 248.125,1326.6953 Q248.3594,1326.9531 248.3594,1327.5625 L248.3594,1329.0156 Q248.3594,1329.625 248.125,1329.8906 Q247.8906,1330.1563 247.5156,1330.1563 Q247.1719,1330.1563 246.9688,1329.9531 Q246.7656,1329.7656 246.6563,1329.25 Q246.6094,1328.8906 246.4219,1328.7031 Q246.0938,1328.3281 245.4844,1328.1094 Q244.875,1327.8906 244.25,1327.8906 Q243.4844,1327.8906 242.8516,1328.2188 Q242.2188,1328.5469 241.7266,1329.2969 Q241.2344,1330.0469 241.2344,1331.0781 L241.2344,1332.1719 Q241.2344,1333.4063 242.125,1334.2266 Q243.0156,1335.0469 244.6094,1335.0469 Q245.5469,1335.0469 246.2031,1334.7969 Q246.5938,1334.6406 247.0156,1334.2031 Q247.2813,1333.9375 247.4297,1333.8594 Q247.5781,1333.7813 247.7813,1333.7813 Q248.1094,1333.7813 248.3672,1334.0391 Q248.625,1334.2969 248.625,1334.6406 Q248.625,1334.9844 248.2813,1335.3906 Q247.7813,1335.9688 246.9844,1336.2969 Q245.9063,1336.75 244.6094,1336.75 Q243.0938,1336.75 241.8906,1336.125 Q240.9063,1335.625 240.2188,1334.5547 Q239.5313,1333.4844 239.5313,1332.2031 L239.5313,1331.0469 Q239.5313,1329.7188 240.1484,1328.5703 Q240.7656,1327.4219 241.8594,1326.8047 Q242.9531,1326.1875 244.1875,1326.1875 Q244.9219,1326.1875 245.5703,1326.3516 Q246.2188,1326.5156 246.7656,1326.875 Z " fill="#000000"/><text fill="#000000" font-family="sans-serif" font-size="12" lengthAdjust="spacing" textLength="30" x="258" y="1335.9102">Color</text><line style="stroke:#A80036;stroke-width:1.5;" x1="230" x2="290" y1="1347" y2="1347"/><line style="stroke:#A80036;stroke-width:1.5;" x1="230" x2="290" y1="1355" y2="1355"/><!--MD5=[8c7d7abc12e214c3cc12c9ab70edee11]
class Coordinate--><rect fill="#FEFECE" filter="url(#f14l27q557olw9)" height="48" id="Coordinate" style="stroke:#A80036;stroke-width:1.5;" width="93" x="568.5" y="1315"/><ellipse cx="583.5" cy="1331" fill="#ADD1B2" rx="11" ry="11" style="stroke:#A80036;stroke-width:1.0;"/><path d="M586.2656,1326.875 Q586.4219,1326.6563 586.6094,1326.5469 Q586.7969,1326.4375 587.0156,1326.4375 Q587.3906,1326.4375 587.625,1326.6953 Q587.8594,1326.9531 587.8594,1327.5625 L587.8594,1329.0156 Q587.8594,1329.625 587.625,1329.8906 Q587.3906,1330.1563 587.0156,1330.1563 Q586.6719,1330.1563 586.4688,1329.9531 Q586.2656,1329.7656 586.1563,1329.25 Q586.1094,1328.8906 585.9219,1328.7031 Q585.5938,1328.3281 584.9844,1328.1094 Q584.375,1327.8906 583.75,1327.8906 Q582.9844,1327.8906 582.3516,1328.2188 Q581.7188,1328.5469 581.2266,1329.2969 Q580.7344,1330.0469 580.7344,1331.0781 L580.7344,1332.1719 Q580.7344,1333.4063 581.625,1334.2266 Q582.5156,1335.0469 584.1094,1335.0469 Q585.0469,1335.0469 585.7031,1334.7969 Q586.0938,1334.6406 586.5156,1334.2031 Q586.7813,1333.9375 586.9297,1333.8594 Q587.0781,1333.7813 587.2813,1333.7813 Q587.6094,1333.7813 587.8672,1334.0391 Q588.125,1334.2969 588.125,1334.6406 Q588.125,1334.9844 587.7813,1335.3906 Q587.2813,1335.9688 586.4844,1336.2969 Q585.4063,1336.75 584.1094,1336.75 Q582.5938,1336.75 581.3906,1336.125 Q580.4063,1335.625 579.7188,1334.5547 Q579.0313,1333.4844 579.0313,1332.2031 L579.0313,1331.0469 Q579.0313,1329.7188 579.6484,1328.5703 Q580.2656,1327.4219 581.3594,1326.8047 Q582.4531,1326.1875 583.6875,1326.1875 Q584.4219,1326.1875 585.0703,1326.3516 Q585.7188,1326.5156 586.2656,1326.875 Z " fill="#000000"/><text fill="#000000" font-family="sans-serif" font-size="12" lengthAdjust="spacing" textLength="61" x="597.5" y="1335.9102">Coordinate</text><line style="stroke:#A80036;stroke-width:1.5;" x1="569.5" x2="660.5" y1="1347" y2="1347"/><line style="stroke:#A80036;stroke-width:1.5;" x1="569.5" x2="660.5" y1="1355" y2="1355"/><!--MD5=[51aa466bb0b5688e32f7be663d08f968]
link conecta4.models.Game to conecta4.models.Board--><path codeLine="15" d="M340.232,252.8864 C340.232,252.8864 324.59,286.01 319,302 C272.66,434.63 259.29,594.05 256.73,711.76 " fill="none" id="conecta4.models.Game-conecta4.models.Board" style="stroke:#A80036;stroke-width:1.0;"/><polygon fill="#A80036" points="256.48,724.82,260.6474,715.8963,256.5734,719.8209,252.6488,715.7469,256.48,724.82" style="stroke:#A80036;stroke-width:1.0;"/><line style="stroke:#A80036;stroke-width:1.0;" x1="256.5734" x2="256.73" y1="719.8209" y2="711.825"/><polygon fill="#A80036" points="345.73,242.22,339.4255,245.7205,340.232,252.8864,346.5365,249.3859,345.73,242.22" style="stroke:#A80036;stroke-width:1.0;"/><!--MD5=[f7b95faf5b24f1cc37729547ac21490c]
link conecta4.models.Game to conecta4.models.Turn--><path codeLine="16" d="M410.335,254.1991 C410.335,254.1991 410.61,277.65 410.74,288.51 " fill="none" id="conecta4.models.Game-conecta4.models.Turn" style="stroke:#A80036;stroke-width:1.0;"/><polygon fill="#A80036" points="410.9,301.65,414.7909,292.6023,410.8396,296.6504,406.7915,292.699,410.9,301.65" style="stroke:#A80036;stroke-width:1.0;"/><line style="stroke:#A80036;stroke-width:1.0;" x1="410.8396" x2="410.74" y1="296.6504" y2="288.645"/><polygon fill="#A80036" points="410.19,242.2,406.2628,248.2479,410.335,254.1991,414.2622,248.1512,410.19,242.2" style="stroke:#A80036;stroke-width:1.0;"/><!--MD5=[b358dbb1f8993b043667627015d6de35]
link conecta4.models.Game to conecta4.types.Error--><path codeLine="17" d="M487.62,197.28 C523.71,225.27 564.86,261.92 594,302 C799.26,584.3 839.45,1030.3 846.58,1146.22 " fill="none" id="conecta4.models.Game-to-conecta4.types.Error" style="stroke:#A80036;stroke-width:1.0;stroke-dasharray:7.0,7.0;"/><polygon fill="#A80036" points="846.89,1151.49,850.3422,1142.266,846.5897,1146.499,842.3567,1142.7465,846.89,1151.49" style="stroke:#A80036;stroke-width:1.0;"/><!--MD5=[278684adc007b0d4f472bdbdb5e13d4b]
link conecta4.models.Game to conecta4.types.Color--><path codeLine="18" d="M477.17,242.2 C549.9,353.93 661.44,543.67 712,725 C751.42,866.37 754.57,1041.53 753.42,1125.34 " fill="none" id="conecta4.models.Game-to-conecta4.types.Color" style="stroke:#A80036;stroke-width:1.0;stroke-dasharray:7.0,7.0;"/><polygon fill="#A80036" points="753.34,1130.48,757.4937,1121.5499,753.4257,1125.4807,749.4949,1121.4128,753.34,1130.48" style="stroke:#A80036;stroke-width:1.0;"/><!--MD5=[2c90554032eda137678ef233410435bf]
link conecta4.models.Board to conecta4.types.CoordinateDirection--><path codeLine="42" d="M450.81,1036.05 C468.84,1050.85 486.79,1065.68 504,1080 C519.69,1093.06 536.51,1107.27 552.2,1120.61 " fill="none" id="conecta4.models.Board-to-conecta4.types.CoordinateDirection" style="stroke:#A80036;stroke-width:1.0;stroke-dasharray:7.0,7.0;"/><polygon fill="#A80036" points="556.16,1123.98,551.8941,1115.1029,552.3507,1120.7413,546.7123,1121.1979,556.16,1123.98" style="stroke:#A80036;stroke-width:1.0;"/><!--MD5=[c0c49a25c532dfa2a708db7f35c291f0]
link conecta4.models.Board to conecta4.types.Color--><path codeLine="43" d="M488.3,1024.36 C497.22,1028.48 506.13,1032.38 515,1036 C594.46,1068.41 635.27,1027.31 703,1080 C717.8,1091.51 728.56,1108.74 736.17,1125.35 " fill="none" id="conecta4.models.Board-to-conecta4.types.Color" style="stroke:#A80036;stroke-width:1.0;stroke-dasharray:7.0,7.0;"/><polygon fill="#A80036" points="738.23,1130.02,738.2357,1120.1711,736.202,1125.4498,730.9233,1123.416,738.23,1130.02" style="stroke:#A80036;stroke-width:1.0;"/><!--MD5=[e34c5fbe7f95020ec17ad92f10581c32]
link conecta4.models.Board to conecta4.models.Column--><path codeLine="44" d="M260,1048.15 C260,1048.15 260,1071.71 260,1082.44 " fill="none" id="conecta4.models.Board-conecta4.models.Column" style="stroke:#A80036;stroke-width:1.0;"/><polygon fill="#A80036" points="260,1095.76,264,1086.76,260,1090.76,256,1086.76,260,1095.76" style="stroke:#A80036;stroke-width:1.0;"/><line style="stroke:#A80036;stroke-width:1.0;" x1="260" x2="260" y1="1090.76" y2="1082.76"/><polygon fill="#A80036" points="260,1036.15,256,1042.15,260,1048.15,264,1042.15,260,1036.15" style="stroke:#A80036;stroke-width:1.0;"/><text fill="#000000" font-family="sans-serif" font-size="13" lengthAdjust="spacing" textLength="49" x="209.8133" y="1057.5833">columns</text><!--MD5=[b0996d67f751aa9717ff4c3ef0c62be5]
link conecta4.models.Column to Color--><path codeLine="57" d="M247.3423,1267.3596 C247.3423,1267.3596 248.19,1291.66 249.15,1301.7 " fill="none" id="conecta4.models.Column-Color" style="stroke:#A80036;stroke-width:1.0;"/><polygon fill="#A80036" points="250.75,1314.9,253.6323,1305.4824,250.1454,1309.9367,245.6911,1306.4497,250.75,1314.9" style="stroke:#A80036;stroke-width:1.0;"/><line style="stroke:#A80036;stroke-width:1.0;" x1="250.1454" x2="249.185" y1="1309.9367" y2="1302"/><polygon fill="#A80036" points="247.25,1255.36,243.2963,1261.3906,247.3423,1267.3596,251.296,1261.3291,247.25,1255.36" style="stroke:#A80036;stroke-width:1.0;"/><text fill="#000000" font-family="sans-serif" font-size="13" lengthAdjust="spacing" textLength="38" x="206.6207" y="1276.1585">places</text><!--MD5=[b0996d67f751aa9717ff4c3ef0c62be5]
link conecta4.models.Column to Color--><path codeLine="58" d="M273.5,1255.36 C273.56,1274.92 272.58,1294.64 270.53,1309.9 " fill="none" id="conecta4.models.Column-to-Color" style="stroke:#A80036;stroke-width:1.0;stroke-dasharray:7.0,7.0;"/><polygon fill="#A80036" points="269.79,1314.9,275.0597,1306.5795,270.5191,1309.9534,267.1452,1305.4129,269.79,1314.9" style="stroke:#A80036;stroke-width:1.0;"/><!--MD5=[df5bbde185b1da91c51e0dd5512a0a0e]
link conecta4.models.Turn to conecta4.models.Player--><path codeLine="73" d="M399.7568,500.19 C399.7568,500.19 400.08,524.02 400.53,534.71 " fill="none" id="conecta4.models.Turn-conecta4.models.Player" style="stroke:#A80036;stroke-width:1.0;"/><polygon fill="#A80036" points="401.2,547.92,404.74,538.7293,400.9473,542.9264,396.7502,539.1337,401.2,547.92" style="stroke:#A80036;stroke-width:1.0;"/><line style="stroke:#A80036;stroke-width:1.0;" x1="400.9473" x2="400.535" y1="542.9264" y2="534.94"/><polygon fill="#A80036" points="399.77,488.19,395.7634,494.1856,399.7568,500.19,403.7634,494.1944,399.77,488.19" style="stroke:#A80036;stroke-width:1.0;"/><text fill="#000000" font-family="sans-serif" font-size="13" lengthAdjust="spacing" textLength="5" x="394.4572" y="537.3112">*</text><!--MD5=[df5bbde185b1da91c51e0dd5512a0a0e]
link conecta4.models.Turn to conecta4.models.Player--><path codeLine="75" d="M425.85,488.19 C426.2,506.6 425.98,525.53 425.19,542.67 " fill="none" id="conecta4.models.Turn-to-conecta4.models.Player" style="stroke:#A80036;stroke-width:1.0;stroke-dasharray:7.0,7.0;"/><polygon fill="#A80036" points="424.93,547.92,429.3883,539.138,425.1875,542.9266,421.3989,538.7259,424.93,547.92" style="stroke:#A80036;stroke-width:1.0;"/><!--MD5=[3495e4cf0012a34ec4495f809b6fd30e]
link conecta4.models.Turn to conecta4.models.Board--><path codeLine="74" d="M343.1132,498.6137 C343.1132,498.6137 326.15,531.75 320,548 C300.45,599.67 287.16,658.35 278.17,711.82 " fill="none" id="conecta4.models.Turn-conecta4.models.Board" style="stroke:#A80036;stroke-width:1.0;"/><polygon fill="#A80036" points="276.03,724.94,281.4314,716.7044,276.8377,720.0057,273.5365,715.412,276.03,724.94" style="stroke:#A80036;stroke-width:1.0;"/><line style="stroke:#A80036;stroke-width:1.0;" x1="276.8377" x2="278.12" y1="720.0057" y2="712.105"/><polygon fill="#A80036" points="348.97,488.14,342.5504,491.4246,343.1132,498.6137,349.5328,495.3291,348.97,488.14" style="stroke:#A80036;stroke-width:1.0;"/><!--MD5=[ba52586d68f5788d9c8dff29916b6506]
link conecta4.models.Turn to conecta4.types.Color--><path codeLine="76" d="M487.73,485.92 C537.51,549.18 600.52,637.79 640,725 C702.36,862.74 733.53,1040.6 745.69,1125.37 " fill="none" id="conecta4.models.Turn-to-conecta4.types.Color" style="stroke:#A80036;stroke-width:1.0;stroke-dasharray:7.0,7.0;"/><polygon fill="#A80036" points="746.4,1130.32,749.0985,1120.848,745.6989,1125.3694,741.1775,1121.9698,746.4,1130.32" style="stroke:#A80036;stroke-width:1.0;"/><!--MD5=[7e12d4f76f1252491321f0951c29c1be]
link conecta4.models.Turn to conecta4.types.Error--><path codeLine="77" d="M487.56,447.24 C565.81,504.86 684.64,606.08 743,725 C815.58,872.89 839.3,1073.11 845.83,1146.26 " fill="none" id="conecta4.models.Turn-to-conecta4.types.Error" style="stroke:#A80036;stroke-width:1.0;stroke-dasharray:7.0,7.0;"/><polygon fill="#A80036" points="846.27,1151.3,849.4845,1141.9905,845.8418,1146.3184,841.5139,1142.6756,846.27,1151.3" style="stroke:#A80036;stroke-width:1.0;"/><!--MD5=[580f90fcdf538c07536123eb01c48697]
link conecta4.models.Player to conecta4.models.Board--><path codeLine="86" d="M374.6575,675.6336 C374.6575,675.6336 360.68,700.52 353.58,713.14 " fill="none" id="conecta4.models.Player-conecta4.models.Board" style="stroke:#A80036;stroke-width:1.0;"/><polygon fill="#A80036" points="347,724.83,354.8983,718.9464,349.451,720.472,347.9255,715.0247,347,724.83" style="stroke:#A80036;stroke-width:1.0;"/><line style="stroke:#A80036;stroke-width:1.0;" x1="349.451" x2="353.375" y1="720.472" y2="713.5"/><polygon fill="#A80036" points="380.55,665.18,374.1192,668.4426,374.6575,675.6336,381.0883,672.371,380.55,665.18" style="stroke:#A80036;stroke-width:1.0;"/><!--MD5=[e0aca7ba5da5496154306406bb5deca1]
link conecta4.models.Player to conecta4.types.Color--><path codeLine="87" d="M435.7786,674.9335 C435.7786,674.9335 459.73,708.46 470,725 C550.83,855.22 527.11,913.34 619,1036 C636.55,1059.43 650.08,1056.85 668,1080 C684.23,1100.96 697.65,1128.1 712.48,1147.91 " fill="none" id="conecta4.models.Player-conecta4.types.Color" style="stroke:#A80036;stroke-width:1.0;"/><polygon fill="#A80036" points="720.89,1158.08,718.2346,1148.5959,717.7026,1154.2277,712.0708,1153.6957,720.89,1158.08" style="stroke:#A80036;stroke-width:1.0;"/><line style="stroke:#A80036;stroke-width:1.0;" x1="717.7026" x2="712.605" y1="1154.2277" y2="1148.06"/><polygon fill="#A80036" points="428.83,665.15,429.0432,672.358,435.7786,674.9335,435.5655,667.7255,428.83,665.15" style="stroke:#A80036;stroke-width:1.0;"/><!--MD5=[e0aca7ba5da5496154306406bb5deca1]
link conecta4.models.Player to conecta4.types.Color--><path codeLine="88" d="M469.5519,674.6187 C469.5519,674.6187 494.73,708.46 505,725 C585.83,855.22 562.11,913.34 654,1036 C671.55,1059.43 685.08,1056.85 703,1080 C712.01,1091.64 720.15,1105.18 727.1,1118.31 " fill="none" id="conecta4.models.Player-conecta4.types.Color-1" style="stroke:#A80036;stroke-width:1.0;"/><polygon fill="#A80036" points="733.13,1130.19,732.6199,1120.3544,730.8654,1125.7322,725.4875,1123.9777,733.13,1130.19" style="stroke:#A80036;stroke-width:1.0;"/><line style="stroke:#A80036;stroke-width:1.0;" x1="730.8654" x2="727.245" y1="1125.7322" y2="1118.6"/><polygon fill="#A80036" points="462.18,665.15,462.7097,672.3416,469.5519,674.6187,469.0222,667.4271,462.18,665.15" style="stroke:#A80036;stroke-width:1.0;"/><text fill="#000000" font-family="sans-serif" font-size="13" lengthAdjust="spacing" textLength="31" x="435.2848" y="686.7786">chips</text><!--MD5=[e0aca7ba5da5496154306406bb5deca1]
link conecta4.models.Player to conecta4.types.Color--><path codeLine="89" d="M488.07,656.93 C507.08,677.28 525.45,701.56 540,725 C620.83,855.22 597.11,913.34 689,1036 C706.55,1059.43 720.08,1056.85 738,1080 C748.66,1093.77 758.11,1110.21 764.06,1125.49 " fill="none" id="conecta4.models.Player-to-conecta4.types.Color" style="stroke:#A80036;stroke-width:1.0;stroke-dasharray:7.0,7.0;"/><polygon fill="#A80036" points="765.79,1130.19,766.4279,1120.3618,764.0595,1125.499,758.9223,1123.1306,765.79,1130.19" style="stroke:#A80036;stroke-width:1.0;"/><!--MD5=[98511ae873134664e78166f81e3310b8]
link conecta4.models.Player to conecta4.types.Error--><path codeLine="90" d="M488.1,631.9 C536.6,650.84 598.2,681.31 640,725 C703.37,791.24 805.47,1058.96 837.82,1146.59 " fill="none" id="conecta4.models.Player-to-conecta4.types.Error" style="stroke:#A80036;stroke-width:1.0;stroke-dasharray:7.0,7.0;"/><polygon fill="#A80036" points="839.58,1151.36,840.2276,1141.5325,837.8541,1146.6673,832.7193,1144.2939,839.58,1151.36" style="stroke:#A80036;stroke-width:1.0;"/><!--MD5=[9f9bbfb3d5ee53801d3ce57ae9317e77]
link conecta4.models.State to conecta4.models.StateValue--><path codeLine="98" d="M147,205.79 C147,205.79 147,292.2 147,329.88 " fill="none" id="conecta4.models.State-conecta4.models.StateValue" style="stroke:#A80036;stroke-width:1.0;"/><polygon fill="#A80036" points="147,343.28,151,334.28,147,338.28,143,334.28,147,343.28" style="stroke:#A80036;stroke-width:1.0;"/><line style="stroke:#A80036;stroke-width:1.0;" x1="147" x2="147" y1="338.28" y2="330.28"/><polygon fill="#A80036" points="147,193.79,143,199.79,147,205.79,151,199.79,147,193.79" style="stroke:#A80036;stroke-width:1.0;"/><!--MD5=[71ae5ca894ee6c3143c6a3ead507e561]
link conecta4.types.CoordinateDirection to Coordinate--><path codeLine="120" d="M615,1227.16 C615,1254.39 615,1286.95 615,1309.71 " fill="none" id="conecta4.types.CoordinateDirection-to-Coordinate" style="stroke:#A80036;stroke-width:1.0;stroke-dasharray:7.0,7.0;"/><polygon fill="#A80036" points="615,1314.99,619,1305.99,615,1309.99,611,1305.99,615,1314.99" style="stroke:#A80036;stroke-width:1.0;"/><!--MD5=[9f6eb804314a23256065b9707621e7c7]
@startuml paqueteConecta4Models

class conecta4.models.Game{
  + Game()
  + hasGoal()
  + putChip(int column)
  + getCurrentColor(): Color
  + getColor(Coordinate): Color
  + getNumColumns(): int
  + getNumRows(): int
  + getNumPlayers(): int
  + reset()
  + getPutChipError(int): Error
  + next()
}
conecta4.models.Game *-down-> conecta4.models.Board
conecta4.models.Game *-down-> conecta4.models.Turn
conecta4.models.Game .down.> conecta4.types.Error
conecta4.models.Game .down.> conecta4.types.Color

class conecta4.models.Board{
  + {static} COLUMNS: int
  + {static} ROWS: int
  - lastColumn: int
  + Board()
  + canAddChip(int): boolean
  + addChip(Color, int)
  + getNumColumns(): int
  + getNumRows(): int
  + getColor(Coordinate): Color
  + isInLimits(Coordinate): boolean
  + reset()
  + isFull(int): boolean
  + isInRange(int): boolean
  + isEmpty(): boolean
  + hasGoal(): boolean
  - getCandidateGroups(Coordinate): List<List<Coordinate>>
  - getCandidateGroupsByDirection(Coordinate, CoordinateDirection): List<List<Coordinate>>
  - getFirstCandidateCoordinate(Coordinate, CoordinateDirection): Coordinate
  - getCandidateByFirstCoordinate(Coordinate, CoordinateDirection): List<Coordinate>
}

conecta4.models.Board .down.> conecta4.types.CoordinateDirection
conecta4.models.Board .down.> conecta4.types.Color
conecta4.models.Board "columns" *-down-> conecta4.models.Column

class conecta4.models.Column{
  + Column(int)
  + isFull(): boolean
  + isEmpty(): boolean
  + addChip(Color)
  + getColor(int): Color
  + getLastIndexWithColor(): int
  + getLasColor(): Color
  + reset()
}

conecta4.models.Column "places" *-down-> Color
conecta4.models.Column .down.> Color

class conecta4.models.Turn{
  + {static} PLAYERS_NUMBER: int
  - currentPlayerIndex: int
  + Turn(Board)
  + putChip(int)
  + getCurrentPlayer(): Player
  + getPlayersNumber(): int
  + getCurrentColor(): Color
  + reset()
  ~ getPutChipError(int): Error
  + next()
}

conecta4.models.Turn *-down-> "*" conecta4.models.Player
conecta4.models.Turn *-down-> conecta4.models.Board
conecta4.models.Turn .down.> conecta4.models.Player
conecta4.models.Turn .down.> conecta4.types.Color
conecta4.models.Turn .down.-> conecta4.types.Error

class conecta4.models.Player{
  + {static} PIECES_BY_PLAYER: int
  + putChip(int): boolean
  + getColor(): Color
  + reset()
  + getPutChipError(int): Error
}
conecta4.models.Player *-down-> conecta4.models.Board
conecta4.models.Player *-down-> conecta4.types.Color
conecta4.models.Player "chips" *-down-> conecta4.types.Color
conecta4.models.Player .down.> conecta4.types.Color
conecta4.models.Player .down.> conecta4.types.Error

class conecta4.models.State{
  + State()
  + reset()
  + next()
  + getValueState(): StateValue
}
conecta4.models.State *-down-> conecta4.models.StateValue

enum conecta4.models.StateValue{
  + INITIAL
  + IN_GAME
  + RESUME
  + EXIT
}

enum conecta4.types.Color{
  + BLUE
  + RED
  + NULL
}

enum conecta4.types.CoordinateDirection{
  + ROW
  + COLUMN
  + MAIN_DIAGONAL
  + REVERSE_DIAGONAL
}

conecta4.types.CoordinateDirection .down.> Coordinate

@enduml

PlantUML version 1.2021.7(Sun May 23 14:40:07 CEST 2021)
(GPL source distribution)
Java Runtime: Java(TM) SE Runtime Environment
JVM: Java HotSpot(TM) 64-Bit Server VM
Default Encoding: Cp1252
Language: es
Country: ES
--></g></svg>