<?xml version="1.0" encoding="UTF-8" standalone="no"?><svg xmlns="http://www.w3.org/2000/svg" xmlns:xlink="http://www.w3.org/1999/xlink" contentScriptType="application/ecmascript" contentStyleType="text/css" height="643px" preserveAspectRatio="none" style="width:579px;height:643px;background:#FFFFFF;" version="1.1" viewBox="0 0 579 643" width="579px" zoomAndPan="magnify"><defs><filter height="300%" id="fam59ni1oseh7" width="300%" x="-1" y="-1"><feGaussianBlur result="blurOut" stdDeviation="2.0"/><feColorMatrix in="blurOut" result="blurOut2" type="matrix" values="0 0 0 0 0 0 0 0 0 0 0 0 0 0 0 0 0 0 .4 0"/><feOffset dx="4.0" dy="4.0" in="blurOut2" result="blurOut3"/><feBlend in="SourceGraphic" in2="blurOut3" mode="normal"/></filter></defs><g><polygon fill="#DDDDDD" filter="url(#fam59ni1oseh7)" points="291.5,6,361.5,6,368.5,29.6094,375.5,29.6094,375.5,61.2188,291.5,61.2188,291.5,6" style="stroke:#000000;stroke-width:1.5;"/><line style="stroke:#000000;stroke-width:1.5;" x1="291.5" x2="368.5" y1="29.6094" y2="29.6094"/><text fill="#000000" font-family="sans-serif" font-size="14" font-weight="bold" lengthAdjust="spacing" textLength="64" x="295.5" y="22.5332">conecta4</text><polygon fill="#DDDDDD" filter="url(#fam59ni1oseh7)" points="231,236,346,236,353,259.6094,360,259.6094,360,291.2188,231,291.2188,231,236" style="stroke:#000000;stroke-width:1.5;"/><line style="stroke:#000000;stroke-width:1.5;" x1="231" x2="353" y1="259.6094" y2="259.6094"/><text fill="#000000" font-family="sans-serif" font-size="14" font-weight="bold" lengthAdjust="spacing" textLength="109" x="235" y="252.5332">conecta4.views</text><polygon fill="#DDDDDD" filter="url(#fam59ni1oseh7)" points="328,351,479,351,486,374.6094,493,374.6094,493,406.2188,328,406.2188,328,351" style="stroke:#000000;stroke-width:1.5;"/><line style="stroke:#000000;stroke-width:1.5;" x1="328" x2="486" y1="374.6094" y2="374.6094"/><text fill="#000000" font-family="sans-serif" font-size="14" font-weight="bold" lengthAdjust="spacing" textLength="145" x="332" y="367.5332">conecta4.controllers</text><polygon fill="#DDDDDD" filter="url(#fam59ni1oseh7)" points="326,466,451,466,458,489.6094,465,489.6094,465,521.2188,326,521.2188,326,466" style="stroke:#000000;stroke-width:1.5;"/><line style="stroke:#000000;stroke-width:1.5;" x1="326" x2="458" y1="489.6094" y2="489.6094"/><text fill="#000000" font-family="sans-serif" font-size="14" font-weight="bold" lengthAdjust="spacing" textLength="119" x="330" y="482.5332">conecta4.models</text><polygon fill="#DDDDDD" filter="url(#fam59ni1oseh7)" points="209.5,581,321.5,581,328.5,604.6094,335.5,604.6094,335.5,636.2188,209.5,636.2188,209.5,581" style="stroke:#000000;stroke-width:1.5;"/><line style="stroke:#000000;stroke-width:1.5;" x1="209.5" x2="328.5" y1="604.6094" y2="604.6094"/><text fill="#000000" font-family="sans-serif" font-size="14" font-weight="bold" lengthAdjust="spacing" textLength="106" x="213.5" y="597.5332">conecta4.types</text><polygon fill="#FFFFFF" filter="url(#fam59ni1oseh7)" points="426,581,487,581,494,604.6094,501,604.6094,501,636.2188,426,636.2188,426,581" style="stroke:#000000;stroke-width:1.5;"/><line style="stroke:#000000;stroke-width:1.5;" x1="426" x2="494" y1="604.6094" y2="604.6094"/><text fill="#000000" font-family="sans-serif" font-size="14" font-weight="bold" lengthAdjust="spacing" textLength="55" x="430" y="597.5332">java.util</text><polygon fill="#DDDDDD" filter="url(#fam59ni1oseh7)" points="97.5,351,201.5,351,208.5,374.6094,215.5,374.6094,215.5,406.2188,97.5,406.2188,97.5,351" style="stroke:#000000;stroke-width:1.5;"/><line style="stroke:#000000;stroke-width:1.5;" x1="97.5" x2="208.5" y1="374.6094" y2="374.6094"/><text fill="#000000" font-family="sans-serif" font-size="14" font-weight="bold" lengthAdjust="spacing" textLength="98" x="101.5" y="367.5332">conecta4.utils</text><polygon fill="#FFFFFF" filter="url(#fam59ni1oseh7)" points="123.5,466,175.5,466,182.5,489.6094,189.5,489.6094,189.5,521.2188,123.5,521.2188,123.5,466" style="stroke:#000000;stroke-width:1.5;"/><line style="stroke:#000000;stroke-width:1.5;" x1="123.5" x2="182.5" y1="489.6094" y2="489.6094"/><text fill="#000000" font-family="sans-serif" font-size="14" font-weight="bold" lengthAdjust="spacing" textLength="46" x="127.5" y="482.5332">java.io</text><polygon fill="#DDDDDD" filter="url(#fam59ni1oseh7)" points="16,121,191,121,198,144.6094,205,144.6094,205,176.2188,16,176.2188,16,121" style="stroke:#000000;stroke-width:1.5;"/><line style="stroke:#000000;stroke-width:1.5;" x1="16" x2="198" y1="144.6094" y2="144.6094"/><text fill="#000000" font-family="sans-serif" font-size="14" font-weight="bold" lengthAdjust="spacing" textLength="169" x="20" y="137.5332">conecta4.views.console</text><polygon fill="#DDDDDD" filter="url(#fam59ni1oseh7)" points="311.5,121,491.5,121,498.5,144.6094,505.5,144.6094,505.5,176.2188,311.5,176.2188,311.5,121" style="stroke:#000000;stroke-width:1.5;"/><line style="stroke:#000000;stroke-width:1.5;" x1="311.5" x2="498.5" y1="144.6094" y2="144.6094"/><text fill="#000000" font-family="sans-serif" font-size="14" font-weight="bold" lengthAdjust="spacing" textLength="174" x="315.5" y="137.5332">conecta4.views.graphics</text><!--MD5=[e00fa4ba371a3fcdaa819c440db7c78f]
link conecta4 to conecta4.views.graphics--><path codeLine="2" d="M351.27,61.28 C362.3,77.89 376.5,99.28 387.99,116.6 " fill="none" id="conecta4-to-conecta4.views.graphics" style="stroke:#A80036;stroke-width:1.0;stroke-dasharray:7.0,7.0;"/><polygon fill="#A80036" points="390.85,120.91,389.2244,111.1962,388.093,116.7388,382.5504,115.6074,390.85,120.91" style="stroke:#A80036;stroke-width:1.0;"/><!--MD5=[2747112b5defd1fd8c8790615d29f0c3]
link conecta4 to conecta4.views.console--><path codeLine="3" d="M291.29,55.89 C256.35,73.59 206.36,98.93 167.8,118.47 " fill="none" id="conecta4-to-conecta4.views.console" style="stroke:#A80036;stroke-width:1.0;stroke-dasharray:7.0,7.0;"/><polygon fill="#A80036" points="163.15,120.82,172.9863,120.3225,167.6106,118.5611,169.372,113.1854,163.15,120.82" style="stroke:#A80036;stroke-width:1.0;"/><!--MD5=[9044725c78c1384d8656eeb85036bf3d]
link conecta4 to conecta4.controllers--><path codeLine="4" d="M375.78,40.38 C421.14,49.18 491.04,70.56 523.5,121 C572.26,196.78 491.36,297.13 442.86,346.87 " fill="none" id="conecta4-to-conecta4.controllers" style="stroke:#A80036;stroke-width:1.0;stroke-dasharray:7.0,7.0;"/><polygon fill="#A80036" points="439.14,350.65,448.3035,347.0402,442.6468,347.086,442.601,341.4293,439.14,350.65" style="stroke:#A80036;stroke-width:1.0;"/><!--MD5=[e327fbc7ffe6f5a33c71bf7080f34460]
link conecta4 to conecta4.views--><path d="M317.53,61.09 C308.52,77.68 298.16,99.83 293.5,121 C285.37,157.93 287.74,201.61 290.92,230.56 " fill="none" id="conecta4-to-conecta4.views" style="stroke:#A80036;stroke-width:1.0;stroke-dasharray:7.0,7.0;"/><polygon fill="#A80036" points="291.52,235.79,294.463,226.3911,290.9474,230.8229,286.5157,227.3073,291.52,235.79" style="stroke:#A80036;stroke-width:1.0;"/><!--MD5=[2a44e30d5d89ea3d819834d634a1576d]
link conecta4.controllers to conecta4.models--><path codeLine="8" d="M406.95,406.28 C404.78,422.6 402,443.56 399.72,460.72 " fill="none" id="conecta4.controllers-to-conecta4.models" style="stroke:#A80036;stroke-width:1.0;stroke-dasharray:7.0,7.0;"/><polygon fill="#A80036" points="399.03,465.91,404.178,457.5137,399.6871,460.9534,396.2474,456.4624,399.03,465.91" style="stroke:#A80036;stroke-width:1.0;"/><!--MD5=[9de870462cb8515697da79d3a80c3cd6]
link conecta4.models to conecta4.types--><path codeLine="11" d="M366.35,521.28 C347.97,538.17 324.2,560.01 305.18,577.48 " fill="none" id="conecta4.models-to-conecta4.types" style="stroke:#A80036;stroke-width:1.0;stroke-dasharray:7.0,7.0;"/><polygon fill="#A80036" points="301.44,580.91,310.774,577.7673,305.1222,577.5275,305.362,571.8757,301.44,580.91" style="stroke:#A80036;stroke-width:1.0;"/><!--MD5=[2a9059e6596f9f307ac90cf4e432f0f7]
link conecta4.models to java.util--><path d="M411.62,521.28 C421.61,537.89 434.48,559.28 444.91,576.6 " fill="none" id="conecta4.models-to-java.util" style="stroke:#A80036;stroke-width:1.0;stroke-dasharray:7.0,7.0;"/><polygon fill="#A80036" points="447.5,580.91,446.2995,571.1346,444.9275,576.6225,439.4396,575.2505,447.5,580.91" style="stroke:#A80036;stroke-width:1.0;"/><!--MD5=[c2d0d1973434432118aa51c1d787c5b8]
link conecta4.controllers to java.util--><path d="M441.24,406.23 C456.83,421.87 474.19,443.03 482.5,466 C495.61,502.25 485.78,546.67 476.05,575.96 " fill="none" id="conecta4.controllers-to-java.util" style="stroke:#A80036;stroke-width:1.0;stroke-dasharray:7.0,7.0;"/><polygon fill="#A80036" points="474.36,580.89,481.0466,573.6588,475.971,576.1567,473.4732,571.0811,474.36,580.89" style="stroke:#A80036;stroke-width:1.0;"/><!--MD5=[6cfc8f0f43543b12f50d62bb0d39bc33]
link conecta4.utils to java.io--><path d="M156.5,406.28 C156.5,422.6 156.5,443.56 156.5,460.72 " fill="none" id="conecta4.utils-to-java.io" style="stroke:#A80036;stroke-width:1.0;stroke-dasharray:7.0,7.0;"/><polygon fill="#A80036" points="156.5,465.91,160.5,456.91,156.5,460.91,152.5,456.91,156.5,465.91" style="stroke:#A80036;stroke-width:1.0;"/><!--MD5=[0d3b2949f96524c72182319650696c87]
link conecta4.views to conecta4.types--><path d="M293.71,291.13 C289.54,353.41 279.15,508.39 274.64,575.58 " fill="none" id="conecta4.views-to-conecta4.types" style="stroke:#A80036;stroke-width:1.0;stroke-dasharray:7.0,7.0;"/><polygon fill="#A80036" points="274.3,580.65,278.8832,571.9325,274.6288,575.6608,270.9005,571.4064,274.3,580.65" style="stroke:#A80036;stroke-width:1.0;"/><!--MD5=[19a28139d6134aaacbe94949b1b683b7]
link conecta4.views to conecta4.controllers--><path d="M322.75,291.28 C339.8,308.03 361.8,329.64 379.5,347.04 " fill="none" id="conecta4.views-to-conecta4.controllers" style="stroke:#A80036;stroke-width:1.0;stroke-dasharray:7.0,7.0;"/><polygon fill="#A80036" points="383.44,350.91,379.8118,341.7538,379.8689,347.4104,374.2124,347.4675,383.44,350.91" style="stroke:#A80036;stroke-width:1.0;"/><!--MD5=[a235196794a980f7d046c2f0985c3728]
link conecta4.views to conecta4.utils--><path d="M262.56,291.28 C241.7,308.24 214.7,330.19 193.16,347.7 " fill="none" id="conecta4.views-to-conecta4.utils" style="stroke:#A80036;stroke-width:1.0;stroke-dasharray:7.0,7.0;"/><polygon fill="#A80036" points="189.2,350.91,198.7074,348.3391,193.0806,347.757,193.6627,342.1302,189.2,350.91" style="stroke:#A80036;stroke-width:1.0;"/><!--MD5=[abd6db18802c7218b449de1be19b4363]
link conecta4.views.console to conecta4.types--><path d="M100.01,176.37 C76,242.79 25.07,416.86 105.5,521 C130.13,552.9 169.83,574.14 204.35,587.6 " fill="none" id="conecta4.views.console-to-conecta4.types" style="stroke:#A80036;stroke-width:1.0;stroke-dasharray:7.0,7.0;"/><polygon fill="#A80036" points="209.4,589.52,202.4215,582.5701,204.7296,587.7347,199.565,590.0427,209.4,589.52" style="stroke:#A80036;stroke-width:1.0;"/><!--MD5=[8cb791b35cd7c4aae5b9aaef386bc0f0]
link conecta4.views.console to conecta4.views--><path d="M154.34,176.28 C182.34,193.38 218.64,215.55 247.42,233.13 " fill="none" id="conecta4.views.console-to-conecta4.views" style="stroke:#A80036;stroke-width:1.0;stroke-dasharray:7.0,7.0;"/><polygon fill="#A80036" points="251.97,235.91,246.3817,227.8,247.7054,233.2999,242.2055,234.6235,251.97,235.91" style="stroke:#A80036;stroke-width:1.0;"/><!--MD5=[3b85164d55d6a3ec1655e0ef33bbf7a5]
link conecta4.views.console to conecta4.controllers--><path d="M124.24,176.26 C141.42,207.45 173.5,258.8 213.5,291 C245.67,316.89 286.78,336.55 323.12,350.53 " fill="none" id="conecta4.views.console-to-conecta4.controllers" style="stroke:#A80036;stroke-width:1.0;stroke-dasharray:7.0,7.0;"/><polygon fill="#A80036" points="327.99,352.38,321.0115,345.4301,323.3196,350.5947,318.155,352.9027,327.99,352.38" style="stroke:#A80036;stroke-width:1.0;"/><!--MD5=[fb1f3cca38319a5acd7a95e2a386d3ed]
link conecta4.views.console to conecta4.utils--><path d="M115.87,176.1 C124.38,218.29 140.94,300.39 150.07,345.65 " fill="none" id="conecta4.views.console-to-conecta4.utils" style="stroke:#A80036;stroke-width:1.0;stroke-dasharray:7.0,7.0;"/><polygon fill="#A80036" points="151.1,350.72,153.2465,341.1079,150.1139,345.8182,145.4036,342.6856,151.1,350.72" style="stroke:#A80036;stroke-width:1.0;"/><!--MD5=[e4f2001a7a9f649298285f8102e2e795]
link conecta4.views.graphics to conecta4.views--><path d="M381.72,176.28 C364.97,193.03 343.36,214.64 325.96,232.04 " fill="none" id="conecta4.views.graphics-to-conecta4.views" style="stroke:#A80036;stroke-width:1.0;stroke-dasharray:7.0,7.0;"/><polygon fill="#A80036" points="322.09,235.91,331.2824,232.3745,325.6255,232.3745,325.6255,226.7176,322.09,235.91" style="stroke:#A80036;stroke-width:1.0;"/><!--MD5=[d4dd405d3de48195a691d2ec7dd86231]
link conecta4.views.graphics to conecta4.controllers--><path d="M408.73,176.1 C409.1,218.29 409.82,300.39 410.22,345.65 " fill="none" id="conecta4.views.graphics-to-conecta4.controllers" style="stroke:#A80036;stroke-width:1.0;stroke-dasharray:7.0,7.0;"/><polygon fill="#A80036" points="410.27,350.72,414.1927,341.686,410.2271,345.7202,406.193,341.7546,410.27,350.72" style="stroke:#A80036;stroke-width:1.0;"/><!--MD5=[0c490b0b6d14e93cb377a40c184e83f3]
@startuml arquitectura
package conecta4 #DDDDDD { }
conecta4 .down.> conecta4.views.graphics
conecta4 .down.> conecta4.views.console
conecta4 .down.> conecta4.controllers
conecta4 .down.> conecta4.views

package conecta4.controllers #DDDDDD { }
conecta4.controllers .down.> conecta4.models

package conecta4.models #DDDDDD { }
conecta4.models .down.> conecta4.types
package conecta4.types #DDDDDD { }
package java.util{ }
conecta4.models .down.> java.util
conecta4.controllers .down.> java.util

package conecta4.utils #DDDDDD { }
package java.io{ }
conecta4.utils .down.> java.io

package conecta4.views #DDDDDD { }
conecta4.views .down.> conecta4.types
conecta4.views .down.> conecta4.controllers
conecta4.views .down.> conecta4.utils

package conecta4.views.console #DDDDDD { }
conecta4.views.console .down.> conecta4.types
conecta4.views.console .down.> conecta4.views
conecta4.views.console .down.> conecta4.controllers
conecta4.views.console .down.> conecta4.utils

package conecta4.views.graphics #DDDDDD { }
conecta4.views.graphics .down.> conecta4.views
conecta4.views.graphics .down.> conecta4.controllers

@enduml

PlantUML version 1.2021.7(Sun May 23 14:40:07 CEST 2021)
(GPL source distribution)
Java Runtime: Java(TM) SE Runtime Environment
JVM: Java HotSpot(TM) 64-Bit Server VM
Default Encoding: Cp1252
Language: es
Country: ES
--></g></svg>